<?xml version="1.0" encoding="UTF-8"?>
<svg id="Layer_1" data-name="Layer 1" xmlns="http://www.w3.org/2000/svg" viewBox="0 0 227.61 227.61">
  <defs>
    <style>
      .cls-1, .cls-2, .cls-3, .cls-4, .cls-5 {
        stroke-width: 0px;
      }

      .cls-2 {
        fill: none;
      }

      .cls-3 {
        fill: #fff;
      }

      .cls-4 {
        fill: #231f20;
      }

      .cls-5 {
        fill: #fbb040;
      }
    </style>
  </defs>
  <circle class="cls-5" cx="113.81" cy="113.81" r="113.81"/>
  <path class="cls-1" d="M185.4,103.58c-.13-7.1-2.44-12.79-6.93-17.08-3.34-3.19-7.75-5.23-13.24-6.12-.33-.05-.66-.1-1-.14-1.85-.26-3.82-.39-5.9-.39h-30.28v16.38h28.01c4.27,0,6.99,1.4,8.17,4.19.46,1.08.69,2.36.69,3.85,0,.77-.06,1.48-.18,2.13-.71,4-3.6,6-8.68,6h-20.94c1.23,3.42,3.08,6.3,5.55,8.65,4.9,4.67,11.58,7.01,20.03,7.01,1.65,0,3.23-.1,4.72-.29.02,0,.04,0,.06-.01,2.8-.52,5.35-1.36,7.63-2.53,4.08-2.1,7.16-4.96,9.22-8.6.84-1.48,1.5-3.04,2-4.68.73-2.39,1.09-4.95,1.09-7.68,0-.23,0-.46-.02-.69ZM139.98,121.77c-2.57-2.44-4.53-5.48-5.8-9.03l-.12-.34h-6.01v39.39c.51-.57,1.1-1.06,1.77-1.45,1.2-.7,2.59-1.05,4.13-1.05,1.06,0,2.06.17,2.97.5v-.38h6.79c1.6,0,3.03.34,4.27.99.12.07.24.13.36.21v-22.24h4.85c-5.27-1.04-9.7-3.25-13.21-6.6ZM147.04,152.17c-.95-.5-2.06-.76-3.33-.76h-4.18c.28.27.54.57.78.89.11.16.22.32.31.48h7.34c-.28-.23-.59-.43-.92-.61ZM136.92,151.97c-.07-.04-.14-.08-.21-.11-.81-.38-1.73-.57-2.76-.57-1.19,0-2.23.26-3.12.78-.35.2-.67.44-.96.71h8.19c-.34-.33-.72-.6-1.14-.81Z"/>
  <path class="cls-2" d="M164.23,100.42v2.4c0,1.3-.15,2.4-.44,3.26l-.02.07v.08c-.64,3.53-3.09,5.17-7.71,5.17h-22.36l.36,1h-10.09v-16.17h32.09c4.27,0,6.99,1.4,8.17,4.19Z"/>
  <path class="cls-2" d="M165.42,127.77c-2.2.4-4.56.6-7.09.6h-5.14c-5.27-1.04-9.7-3.25-13.21-6.6-2.57-2.44-4.53-5.48-5.8-9.03l-.12-.34h1.06c1.23,3.42,3.08,6.3,5.55,8.65,4.9,4.67,11.58,7.01,20.03,7.01,1.65,0,3.23-.1,4.72-.29Z"/>
  <path class="cls-2" d="M164.92,104.27c0,.77-.06,1.48-.18,2.13-.71,4-3.6,6-8.68,6h-22l-.36-1h22.36c4.62,0,7.07-1.64,7.7-5.17v-.08s.03-.07.03-.07c.29-.86.44-1.96.44-3.26v-2.4c.46,1.08.69,2.36.69,3.85Z"/>
  <path class="cls-2" d="M186.42,53.41v49.41c0,.29,0,.56-.02.84-.04,3.06-.41,5.96-1.1,8.55-1.09,4.07-2.99,7.48-5.67,10.12-3.51,3.48-8.17,5.64-13.86,6.4l-.06.03h-.2c-1.54.2-3.16.3-4.81.3-2.67,0-5.17-.23-7.51-.69h5.14c2.53,0,4.89-.2,7.09-.6.02,0,.04,0,.06-.01,5.56-.72,10.05-2.77,13.45-6.14,2.56-2.53,4.36-5.76,5.4-9.67.73-2.39,1.09-4.95,1.09-7.68,0-.23,0-.46-.02-.69.02-.25.02-.5.02-.76v-48.41h-20.19v25.97c-.33-.05-.66-.1-1-.14v-26.83h22.19Z"/>
  <path class="cls-1" d="M185.42,102.82c0,.26,0,.51-.02.76.02.23.02.46.02.69,0,2.73-.36,5.29-1.09,7.68-1.04,3.91-2.84,7.14-5.4,9.67-3.4,3.37-7.89,5.42-13.45,6.14-.02.01-.04.01-.06.01-1.49.19-3.07.29-4.72.29-8.45,0-15.13-2.34-20.03-7.01-2.47-2.35-4.32-5.23-5.55-8.65h20.94c5.08,0,7.97-2,8.68-6,.12-.65.18-1.36.18-2.13,0-1.49-.23-2.77-.69-3.85v-20.18c.34.04.67.09,1,.14v-25.97h20.19v48.41Z"/>
  <path class="cls-4" d="M43.69,85.95v52.74h17.59v-52.74h-17.59Z"/>
  <path class="cls-3" d="M64.82,86.01v52.74h17.59v-52.74h-17.59Z"/>
  <path class="cls-3" d="M43.1,144.82h75.34v-4.72H43.1v4.72Z"/>
  <path class="cls-3" d="M83.2,88l17.9,49.61,16.54-5.97-17.9-49.61-16.54,5.97Z"/>
  <path class="cls-2" d="M123.51,158.19v7.26h7.39v-7.26h-7.39ZM128.9,163.45h-3.39v-3.26h3.07c.06.13.12.27.19.4.04.07.07.14.13.21v2.65Z"/>
  <path class="cls-1" d="M128.9,160.8v2.65h-3.39v-3.26h3.07c.06.13.12.27.19.4.04.07.07.14.13.21Z"/>
  <path class="cls-1" d="M128.77,160.59c-.07-.13-.13-.27-.19-.4h-3.07v3.26h3.39v-2.65c-.06-.07-.09-.14-.13-.21Z"/>
  <path class="cls-1" d="M135.31,160.05c-.41.27-.88.41-1.41.41-.74,0-1.33-.28-1.79-.84-.45-.55-.68-1.29-.68-2.21s.23-1.65.68-2.2c.46-.55,1.05-.82,1.79-.82.53,0,1,.13,1.41.4.41.26.71.63.9,1.11h3.52c-.15-.77-.42-1.46-.81-2.07-.07-.12-.15-.24-.23-.35-.19-.26-.4-.5-.63-.7-.34-.33-.72-.6-1.14-.81-.07-.04-.14-.08-.21-.11-.81-.38-1.73-.57-2.76-.57-1.19,0-2.23.26-3.12.78-.35.2-.67.44-.96.71-.44.41-.81.9-1.1,1.46-.48.92-.72,1.98-.72,3.17,0,.27.01.53.04.78h2.81v4.61c.87.49,1.89.73,3.05.73s2.12-.22,2.97-.67c.31-.16.61-.35.88-.58.45-.37.83-.79,1.12-1.28.39-.6.66-1.29.81-2.07h-3.52c-.19.47-.49.85-.9,1.12ZM128.77,160.59c-.07-.13-.13-.27-.19-.4h-2.12c.14.46.32.9.54,1.32.39.74.87,1.39,1.45,1.94h.45v-2.65c-.06-.07-.09-.14-.13-.21Z"/>
  <path class="cls-2" d="M142.06,157.39l.09-.46h-.18l-.28-1.42c-.2-1-.55-1.91-1.07-2.73-.09-.16-.2-.32-.31-.48-.24-.32-.5-.62-.78-.89-.57-.56-1.23-1.01-1.97-1.36-.21-.1-.42-.18-.64-.26-.91-.33-1.91-.5-2.97-.5-1.54,0-2.93.35-4.13,1.05-.67.39-1.26.88-1.77,1.45-.41.45-.76.96-1.05,1.53-.63,1.21-.95,2.59-.95,4.09,0,.26.01.52.03.78h2.01c-.03-.25-.04-.51-.04-.78,0-1.19.24-2.25.72-3.17.29-.56.66-1.05,1.1-1.46.29-.27.61-.51.96-.71.89-.52,1.93-.78,3.12-.78,1.03,0,1.95.19,2.76.57.07.03.14.07.21.11.42.21.8.48,1.14.81.23.2.44.44.63.7.08.11.16.23.23.35.39.61.66,1.3.81,2.07h-3.52c-.19-.48-.49-.85-.9-1.11-.41-.27-.88-.4-1.41-.4-.74,0-1.33.27-1.79.82-.45.55-.68,1.29-.68,2.2s.23,1.66.68,2.21c.46.56,1.05.84,1.79.84.53,0,1-.14,1.41-.41.41-.27.71-.65.9-1.12h3.52c-.15.78-.42,1.47-.81,2.07-.29.49-.67.91-1.12,1.28-.27.23-.57.42-.88.58-.85.45-1.84.67-2.97.67s-2.18-.24-3.05-.73v2.19c.93.36,1.95.54,3.05.54s2.07-.16,2.97-.49c.79-.28,1.51-.68,2.15-1.21.15-.12.29-.24.42-.38,1.14-1.07,1.88-2.47,2.2-4.14l.27-1.41h.2l-.1-.51ZM134.35,158.18c-.05.13-.1.17-.15.21-.04.02-.11.07-.3.07-.16,0-.18-.03-.24-.1-.19-.23-.23-.64-.23-.95s.04-.7.23-.93c.06-.07.08-.09.24-.09.2,0,.28.05.32.07.03.03.08.06.13.19l.31.76-.31.77Z"/>
  <path class="cls-1" d="M136.21,158.93h3.52c-.15.78-.42,1.47-.81,2.07-.29.49-.67.91-1.12,1.28-.27.23-.57.42-.88.58-.85.45-1.84.67-2.97.67s-2.18-.24-3.05-.73v-4.61h-2.81c-.03-.25-.04-.51-.04-.78,0-1.19.24-2.25.72-3.17.29-.56.66-1.05,1.1-1.46.29-.27.61-.51.96-.71.89-.52,1.93-.78,3.12-.78,1.03,0,1.95.19,2.76.57.07.03.14.07.21.11.42.21.8.48,1.14.81.23.2.44.44.63.7.08.11.16.23.23.35.39.61.66,1.3.81,2.07h-3.52c-.19-.48-.49-.85-.9-1.11-.41-.27-.88-.4-1.41-.4-.74,0-1.33.27-1.79.82-.45.55-.68,1.29-.68,2.2s.23,1.66.68,2.21c.46.56,1.05.84,1.79.84.53,0,1-.14,1.41-.41.41-.27.71-.65.9-1.12Z"/>
  <path class="cls-1" d="M136.92,158.93v3.93c.31-.16.61-.35.88-.58.45-.37.83-.79,1.12-1.28.39-.6.66-1.29.81-2.07h-2.81ZM138.92,153.83c-.07-.12-.15-.24-.23-.35-.19-.26-.4-.5-.63-.7-.34-.33-.72-.6-1.14-.81v3.93h2.81c-.15-.77-.42-1.46-.81-2.07ZM149.21,154.29c-.32-.59-.74-1.09-1.25-1.51-.28-.23-.59-.43-.92-.61-.95-.5-2.06-.76-3.33-.76h-4.18c.28.27.54.57.78.89.11.16.22.32.31.48.52.82.87,1.73,1.07,2.73l.28,1.42h.18l-.09.46.1.51h-.2l-.27,1.41c-.32,1.67-1.06,3.07-2.2,4.14h4.22c1.27,0,2.38-.26,3.32-.78.94-.52,1.66-1.24,2.18-2.15.51-.92.76-1.96.76-3.12s-.25-2.21-.76-3.11ZM145.74,159.66c-.57.53-1.35.8-2.33.8h-1.14v-6.12h1.14c.98,0,1.76.27,2.33.8.56.54.85,1.29.85,2.26s-.29,1.73-.85,2.26Z"/>
  <path class="cls-2" d="M148.34,150.61v2.17h-.38c-.28-.23-.59-.43-.92-.61-.95-.5-2.06-.76-3.33-.76h-4.18c-.57-.56-1.23-1.01-1.97-1.36-.21-.1-.42-.18-.64-.26v-.38h6.79c1.6,0,3.03.34,4.27.99.12.07.24.13.36.21Z"/>
  <path class="cls-2" d="M151.97,157.4c0,1.5-.34,2.88-1.02,4.09-.69,1.24-1.69,2.23-2.95,2.93-1.24.68-2.68,1.03-4.29,1.03h-6.79v-.41c.79-.28,1.51-.68,2.15-1.21.15-.12.29-.24.42-.38h4.22c1.27,0,2.38-.26,3.32-.78.94-.52,1.66-1.24,2.18-2.15.51-.92.76-1.96.76-3.12s-.25-2.21-.76-3.11c-.32-.59-.74-1.09-1.25-1.51h.38v-2.17c1.11.67,2,1.58,2.62,2.7.67,1.21,1.01,2.58,1.01,4.09Z"/>
  <path class="cls-1" d="M149.21,154.29c-.32-.59-.74-1.09-1.25-1.51-.28-.23-.59-.43-.92-.61-.95-.5-2.06-.76-3.33-.76h-4.18c.28.27.54.57.78.89.11.16.22.32.31.48.52.82.87,1.73,1.07,2.73l.28,1.42h.18l-.09.46.1.51h-.2l-.27,1.41c-.32,1.67-1.06,3.07-2.2,4.14h4.22c1.27,0,2.38-.26,3.32-.78.94-.52,1.66-1.24,2.18-2.15.51-.92.76-1.96.76-3.12s-.25-2.21-.76-3.11ZM145.74,159.66c-.57.53-1.35.8-2.33.8h-1.14v-6.12h1.14c.98,0,1.76.27,2.33.8.56.54.85,1.29.85,2.26s-.29,1.73-.85,2.26ZM138.92,153.83v2.07h.81c-.15-.77-.42-1.46-.81-2.07ZM138.92,158.93v2.07c.39-.6.66-1.29.81-2.07h-.81Z"/>
  <path class="cls-2" d="M146.59,157.4c0,.97-.29,1.73-.85,2.26-.57.53-1.35.8-2.33.8h-1.14v-6.12h1.14c.98,0,1.76.27,2.33.8.56.54.85,1.29.85,2.26Z"/>
</svg>